# xmcd
#
# Track frame offsets:
# 150
# 3889
# 7103
# 9451
# 12623
# 14869
# 16822
# 19448
# 21096
# 24854
# 28500
# 33098
# 35553
# 39569
# 41526
# 46190
# 50518
# 58080
# 59429
# 62469
# 63743
# 66513
# 69237
# 71511
# 73506
# 77550
# 83517
# 88335
# 91355
# 97077
# 100307
# 106177
# 108085
# 109597
# 111709
# 113748
# 116627
# 121362
# 122838
#
# Disc length: 1681 seconds
#
# Revision: 0
# Processed by: cddbd v1.5PL3 Copyright (c) Steve Scherf et al.
# Submitted via: Audion 3.0.2 (http://www.panic.com/audion/)
#
DISCID=0e068f27
DTITLE=Mike Ihde - Country Guitar Styles
DYEAR=1900
DGENRE=
TTITLE0=4-10
TTITLE1=14, 15
TTITLE2=16, 17
TTITLE3=27, 28
TTITLE4=29
TTITLE5=33
TTITLE6=35
TTITLE7=36
TTITLE8=37
TTITLE9=39
TTITLE10=44, 45
TTITLE11=46
TTITLE12=47
TTITLE13=48
TTITLE14=51
TTITLE15=52
TTITLE16=54, 55
TTITLE17=57
TTITLE18=58
TTITLE19=60
TTITLE20=64
TTITLE21=65
TTITLE22=66
TTITLE23=67
TTITLE24=68
TTITLE25=69-71
TTITLE26=74, 75
TTITLE27=77
TTITLE28=78
TTITLE29=89
TTITLE30=90, 91
TTITLE31=93
TTITLE32=94
TTITLE33=96
TTITLE34=98
TTITLE35=100
TTITLE36=101
TTITLE37=103
TTITLE38=104
EXTD=
EXTT0=
EXTT1=
EXTT2=
EXTT3=
EXTT4=
EXTT5=
EXTT6=
EXTT7=
EXTT8=
EXTT9=
EXTT10=
EXTT11=
EXTT12=
EXTT13=
EXTT14=
EXTT15=
EXTT16=
EXTT17=
EXTT18=
EXTT19=
EXTT20=
EXTT21=
EXTT22=
EXTT23=
EXTT24=
EXTT25=
EXTT26=
EXTT27=
EXTT28=
EXTT29=
EXTT30=
EXTT31=
EXTT32=
EXTT33=
EXTT34=
EXTT35=
EXTT36=
EXTT37=
EXTT38=
PLAYORDER=
